HIERARCHY
ROOT Hips
{
    OFFSET 0.000000 0.000000 0.000000
    CHANNELS 6 Xposition Yposition Zposition Zrotation Yrotation Xrotation
    JOINT LeftUpLeg
    {
        OFFSET 9.147710 -10.042348 4.006903
        CHANNELS 3 Zrotation Yrotation Xrotation
        JOINT LeftLeg
        {
            OFFSET 13.237925 -36.370876 0.000000
            CHANNELS 3 Zrotation Yrotation Xrotation
            JOINT LeftFoot
            {
                OFFSET 15.478299 -42.526321 0.000000
                CHANNELS 3 Zrotation Yrotation Xrotation
                JOINT LeftToeBase
                {
                    OFFSET 0.961354 -2.641241 11.745206
                    CHANNELS 3 Zrotation Yrotation Xrotation
                    End Site
                    {
                        OFFSET 0.000000 0.000000 0.000000
                    }
                }
            }
        }
    }
    JOINT RightUpLeg
    {
        OFFSET -8.794597 -10.042348 4.006903
        CHANNELS 3 Zrotation Yrotation Xrotation
        JOINT RightLeg
        {
            OFFSET -13.165168 -36.171009 0.000000
            CHANNELS 3 Zrotation Yrotation Xrotation
            JOINT RightFoot
            {
                OFFSET -15.736475 -43.235710 0.000000
                CHANNELS 3 Zrotation Yrotation Xrotation
                JOINT RightToeBase
                {
                    OFFSET -1.281674 -3.521429 11.517907
                    CHANNELS 3 Zrotation Yrotation Xrotation
                    End Site
                    {
                        OFFSET 0.000000 0.000000 0.000000
                    }
                }
            }
        }
    }
    JOINT Spine
    {
        OFFSET 0.124346 10.812696 0.404196
        CHANNELS 3 Zrotation Yrotation Xrotation
        JOINT Spine1
        {
            OFFSET 0.098213 10.753993 0.656782
            CHANNELS 3 Zrotation Yrotation Xrotation
            JOINT Neck1
            {
                OFFSET -0.611909 10.361199 0.286002
                CHANNELS 3 Zrotation Yrotation Xrotation
                JOINT Head
                {
                    OFFSET 0.372587 9.864154 -2.850704
                    CHANNELS 3 Zrotation Yrotation Xrotation
                    End Site
                    {
                        OFFSET 0.000000 0.000000 0.000000
                    }
                }
            }
            JOINT LeftShoulder
            {
                OFFSET 0.000000 0.000000 0.000000
                CHANNELS 3 Zrotation Yrotation Xrotation
                JOINT LeftArm
                {
                    OFFSET 16.202759 7.646469 0.909369
                    CHANNELS 3 Zrotation Yrotation Xrotation
                    JOINT LeftForeArm
                    {
                        OFFSET 30.682507 -0.000000 0.000000
                        CHANNELS 3 Zrotation Yrotation Xrotation
                        JOINT LeftHand
                        {
                            OFFSET 18.370264 -0.000000 0.000000
                            CHANNELS 3 Zrotation Yrotation Xrotation
                            End Site
                            {
                                OFFSET 0.000000 0.000000 0.000000
                            }
                        }
                    }
                }
            }
            JOINT RightShoulder
            {
                OFFSET 0.000000 0.000000 0.000000
                CHANNELS 3 Zrotation Yrotation Xrotation
                JOINT RightArm
                {
                    OFFSET -16.179277 6.970157 2.593997
                    CHANNELS 3 Zrotation Yrotation Xrotation
                    JOINT RightForeArm
                    {
                        OFFSET -30.131502 -0.000000 0.000000
                        CHANNELS 3 Zrotation Yrotation Xrotation
                        JOINT RightHand
                        {
                            OFFSET -18.239765 -0.000000 0.000000
                            CHANNELS 3 Zrotation Yrotation Xrotation
                            End Site
                            {
                                OFFSET 0.000000 0.000000 0.000000
                            }
                        }
                    }
                }
            }
        }
    }
}
MOTION
Frames: 9
Frame Time: 0.016667
18.658129 106.640221 0.179492 -9.329201 -5.807903 14.085004 -14.876599 -8.586201 -13.557107 0.393000 4.025304 11.148004 0.827200 9.688399 16.586800 0.415500 -4.137402 -11.463404 6.707196 22.031013 -98.976631 -35.587399 -12.690100 141.780899 -0.188900 -1.001600 7.917097 -0.074100 1.756401 -4.832798 8.171771 -2.639748 -2.570263 1.267501 -0.743700 -6.733204 0.375485 -1.773721 5.691708 2.523300 -0.724700 9.366507 0.000000 0.000000 0.000000 -76.498413 11.200503 47.178699 38.069527 -46.883598 -17.016308 0.000000 0.000000 -1.719700 0.000000 0.000000 0.000000 77.509514 -17.114700 32.869999 -45.427124 50.976021 -22.570108 0.000000 0.000000 5.751500 
18.701590 106.435883 0.154092 -8.705396 -5.898100 14.141198 -15.202196 -9.213596 -14.330201 0.506400 4.561803 12.662803 0.455801 8.246704 12.508704 0.174600 -2.691801 -7.421803 6.879903 21.732403 -98.344116 -35.681499 -12.572600 142.211197 -0.200200 -0.727300 8.224004 -0.126800 2.295301 -6.322502 7.237523 -2.642504 -2.631045 1.368200 -0.731100 -6.929202 0.569312 -1.914712 5.401876 2.508900 -0.759000 9.283604 0.000000 0.000000 0.000000 -77.420898 11.728199 46.724495 36.093891 -45.577599 -15.589498 0.000000 0.000000 -1.151901 0.000000 0.000000 0.000000 78.051704 -16.686504 33.107506 -43.728508 50.130215 -21.258398 0.000000 0.000000 6.357702 
18.764809 105.973610 0.072813 -8.781606 -6.234805 14.239805 -14.820903 -9.795405 -15.095408 0.631700 5.085300 14.152099 0.218400 6.115300 8.750700 0.256900 -3.260801 -9.005700 7.684701 22.761002 -97.497597 -35.627701 -12.640002 141.964493 -0.212400 -1.509100 8.308096 -0.106400 2.103700 -5.792300 7.160630 -2.424634 -2.405074 1.138501 -0.679300 -6.740903 0.754755 -2.194070 4.210978 2.295299 -0.819800 9.297107 0.000000 0.000000 0.000000 -78.189301 11.540999 46.014896 34.196609 -44.229916 -14.250009 0.000000 0.000000 -1.257401 0.000000 0.000000 0.000000 78.779701 -15.542399 33.252796 -42.105621 49.269020 -20.020512 0.000000 0.000000 6.808900 
18.824074 105.314911 0.231420 -8.768000 -6.609800 14.307303 -14.610301 -10.499800 -15.639900 0.762000 5.574704 15.555396 0.185500 5.632700 8.062004 0.374300 -3.929500 -10.878509 8.388901 23.623899 -95.778503 -35.479008 -12.823204 141.289917 -0.193300 -2.085401 7.842307 -0.058400 1.559901 -4.290902 7.120702 -2.058973 -3.044268 0.837800 -0.604100 -6.694803 0.785742 -2.332626 4.526318 2.215701 -0.845800 8.986403 0.000000 0.000000 0.000000 -78.868103 12.465702 45.353901 32.671993 -43.076405 -13.197494 0.000000 0.000000 -0.590000 0.000000 0.000000 0.000000 79.354897 -15.448800 33.582199 -40.594025 48.417908 -18.882309 0.000000 0.000000 6.633703 
18.957281 104.436073 0.393979 -9.025603 -7.095703 14.406898 -14.339899 -10.574600 -16.303600 0.904400 6.060601 16.960304 0.152900 6.094102 7.615900 0.398500 -4.053002 -11.225803 9.257306 25.192106 -93.912491 -35.218292 -13.133704 140.129105 -0.153100 -2.743401 6.952499 -0.065400 1.650101 -4.539603 7.578913 -1.630880 -3.193323 0.248900 -0.522500 -6.454102 0.856998 -2.502971 3.906158 2.094602 -0.882900 8.902400 0.000000 0.000000 0.000000 -79.351501 12.853600 44.405701 31.358007 -42.029308 -12.308809 0.000000 0.000000 0.424500 0.000000 0.000000 0.000000 80.035194 -14.614201 33.651604 -39.275108 47.634502 -17.901699 0.000000 0.000000 6.759802 
19.059446 103.160439 0.533396 -8.933500 -8.062700 14.687501 -14.659009 -9.845806 -17.449396 1.074901 6.590500 18.507799 0.301700 7.068402 10.257805 0.040400 -1.297200 -3.566800 9.273305 26.792702 -92.870804 -34.985199 -13.400500 139.113403 -0.134500 -3.422502 6.583302 -0.052800 1.482399 -4.077198 7.422008 -0.821995 -3.746424 -0.232200 -0.326900 -6.293502 0.915925 -2.403669 3.526231 1.876100 -0.836000 8.845607 0.000000 0.000000 0.000000 -79.536797 13.141802 43.568401 29.938311 -40.840401 -11.369205 0.000000 0.000000 1.230600 0.000000 0.000000 0.000000 80.786827 -14.315411 33.665810 -38.361591 47.068707 -17.229897 0.000000 0.000000 6.783304 
19.177414 101.546707 0.632173 -8.320603 -9.162502 15.084207 -15.790508 -8.423209 -19.120712 1.293301 7.205504 20.325703 0.261000 6.091404 9.419703 0.203300 -2.903500 -8.010200 8.368801 28.086203 -92.372589 -34.781498 -13.625704 138.241699 -0.084700 -3.620302 5.397402 -0.069700 1.703100 -4.685798 6.602354 -0.099817 -4.263376 -0.471600 -0.131300 -5.751800 1.027583 -2.379452 2.595078 1.933600 -0.837200 9.037306 0.000000 0.000000 0.000000 -79.599297 12.744598 42.340199 29.019316 -40.037807 -10.773105 0.000000 0.000000 2.468600 0.000000 0.000000 0.000000 81.259804 -13.438906 33.873909 -38.202225 46.967911 -17.113205 0.000000 0.000000 6.108399 
19.303284 99.728088 0.728692 -7.796599 -10.327800 15.510303 -17.002609 -6.539300 -21.283501 1.689901 8.187804 23.285894 0.046700 2.681900 4.003598 0.427800 -4.197605 -11.633403 7.381195 29.585703 -91.970535 -34.543312 -13.880404 137.239731 -0.046800 -3.883502 4.398802 -0.061400 1.598799 -4.398102 5.980373 1.093588 -4.894329 -0.834200 0.192600 -5.348900 0.841007 -2.678018 1.765949 1.914400 -0.925200 9.173996 0.000000 0.000000 0.000000 -79.344017 12.724602 41.576916 29.012199 -40.031502 -10.768597 0.000000 0.000000 3.961402 0.000000 0.000000 0.000000 81.732315 -12.863408 33.402905 -38.123402 46.917999 -17.055700 0.000000 0.000000 6.365600 
19.411657 97.751976 0.694826 -7.249603 -11.230103 15.960403 -17.978800 -5.215600 -24.199896 2.310301 9.484600 27.323198 0.006700 -0.443900 -1.459800 0.482800 -4.455802 -12.362803 6.301504 30.768612 -91.994003 -34.322708 -14.108203 136.327515 -0.005300 -4.680200 3.463201 -0.139400 2.406601 -6.630900 5.410016 1.710471 -5.479646 -1.208600 0.350600 -5.333004 0.785615 -2.806260 1.486925 1.935201 -0.954600 8.670403 0.000000 0.000000 0.000000 -78.861305 13.105003 40.555508 29.415821 -40.387421 -11.029107 0.000000 0.000000 5.060700 0.000000 0.000000 0.000000 82.046806 -12.694000 33.901501 -38.634895 47.240002 -17.430294 0.000000 0.000000 6.614500 
